<?xml version="1.0" encoding="UTF-8"?>
<svg id="svg11300" width="128" height="128" style="enable-background:new" version="1.0" viewBox="0 0 128 128" xml:space="preserve" xmlns="http://www.w3.org/2000/svg" xmlns:cc="http://creativecommons.org/ns#" xmlns:dc="http://purl.org/dc/elements/1.1/" xmlns:rdf="http://www.w3.org/1999/02/22-rdf-syntax-ns#" xmlns:xlink="http://www.w3.org/1999/xlink"><title id="title4162">Adwaita Icon Template</title><defs id="defs3"><radialGradient id="paint0_radial_2994_8373" cx="0" cy="0" r="1" gradientTransform="matrix(-11.7 31.247 -54.501 -20.408 17.419 10.638)" gradientUnits="userSpaceOnUse"><stop id="stop8" stop-color="#AE7FE2" offset=".06441"/><stop id="stop9" stop-color="#0078D4" offset="1"/></radialGradient><linearGradient id="paint1_linear_2994_8373" x1="17.512" x2="12.751" y1="37.868" y2="29.635" gradientUnits="userSpaceOnUse"><stop id="stop10" stop-color="#114A8B" offset="0"/><stop id="stop11" stop-color="#0078D4" stop-opacity="0" offset="1"/></linearGradient><radialGradient id="paint2_radial_2994_8373" cx="0" cy="0" r="1" gradientTransform="matrix(30.72 -4.5183 2.9847 20.292 10.43 36.351)" gradientUnits="userSpaceOnUse"><stop id="stop12" stop-color="#D59DFF" offset=".13393"/><stop id="stop13" stop-color="#5E438F" offset="1"/></radialGradient><linearGradient id="paint3_linear_2994_8373" x1="40.357" x2="35.255" y1="25.377" y2="32.692" gradientUnits="userSpaceOnUse"><stop id="stop14" stop-color="#493474" offset="0"/><stop id="stop15" stop-color="#8C66BA" stop-opacity="0" offset="1"/></linearGradient><radialGradient id="paint4_radial_2994_8373" cx="0" cy="0" r="1" gradientTransform="matrix(-24.158 -6.1256 10.312 -40.668 41.055 26.504)" gradientUnits="userSpaceOnUse"><stop id="stop16" stop-color="#50E6FF" offset=".0585"/><stop id="stop17" stop-color="#436DCD" offset="1"/></radialGradient><linearGradient id="paint5_linear_2994_8373" x1="16.976" x2="24.487" y1="3.0566" y2="3.0566" gradientUnits="userSpaceOnUse"><stop id="stop18" stop-color="#2D3F80" offset="0"/><stop id="stop19" stop-color="#436DCD" stop-opacity="0" offset="1"/></linearGradient><linearGradient id="linearGradient2" x1="16.976" x2="24.487" y1="3.0566" y2="3.0566" gradientUnits="userSpaceOnUse" xlink:href="#paint5_linear_2994_8373"/></defs><metadata id="metadata4"><rdf:RDF><cc:Work rdf:about=""><dc:format>image/svg+xml</dc:format><dc:type rdf:resource="http://purl.org/dc/dcmitype/StillImage"/><dc:creator><cc:Agent><dc:title>GNOME Design Team</dc:title></cc:Agent></dc:creator><dc:source/><cc:license rdf:resource="http://creativecommons.org/licenses/by-sa/4.0/"/><dc:title>Adwaita Icon Template</dc:title><dc:subject><rdf:Bag/></dc:subject><dc:date/><dc:rights><cc:Agent><dc:title/></cc:Agent></dc:rights><dc:publisher><cc:Agent><dc:title/></cc:Agent></dc:publisher><dc:identifier/><dc:relation/><dc:language/><dc:coverage/><dc:description/><dc:contributor><cc:Agent><dc:title/></cc:Agent></dc:contributor></cc:Work><cc:License rdf:about="http://creativecommons.org/licenses/by-sa/4.0/"><cc:permits rdf:resource="http://creativecommons.org/ns#Reproduction"/><cc:permits rdf:resource="http://creativecommons.org/ns#Distribution"/><cc:requires rdf:resource="http://creativecommons.org/ns#Notice"/><cc:requires rdf:resource="http://creativecommons.org/ns#Attribution"/><cc:permits rdf:resource="http://creativecommons.org/ns#DerivativeWorks"/><cc:requires rdf:resource="http://creativecommons.org/ns#ShareAlike"/></cc:License></rdf:RDF></metadata><rect id="rect929-36-9" x="12" y="12" width="104" height="104" rx="16" style="enable-background:new;fill:#f6f5f4;paint-order:normal"/><g id="g2" transform="matrix(1.95 0 0 1.95 17.2 17.198)" style="fill:none;stroke-width:.76923"><path id="path1-3" d="m20.084 3.0259-0.2247 0.13591c-0.3574 0.2162-0.6941 0.45793-1.0083 0.72206l0.6481-0.45587h5.5007l1 7.572-5 5-5 3.4754v4.0075c0 2.799 1.4629 5.3945 3.8574 6.8439l5.2637 3.1861-11.121 6.4873h-2.1449l-3.9977-2.4198c-2.3945-1.4494-3.8574-4.0449-3.8574-6.8439v-13.476c0-2.7999 1.4638-5.3961 3.8595-6.8452l12-7.2585c0.0744-0.04498 0.1493-0.08864 0.2247-0.13099z" fill="url(#paint0_radial_2994_8373)" style="fill:url(#paint0_radial_2994_8373);stroke-width:.76923"/><path id="path2-5" d="m20.084 3.0259-0.2247 0.13591c-0.3574 0.2162-0.6941 0.45793-1.0083 0.72206l0.6481-0.45587h5.5007l1 7.572-5 5-5 3.4754v4.0075c0 2.799 1.4629 5.3945 3.8574 6.8439l5.2637 3.1861-11.121 6.4873h-2.1449l-3.9977-2.4198c-2.3945-1.4494-3.8574-4.0449-3.8574-6.8439v-13.476c0-2.7999 1.4638-5.3961 3.8595-6.8452l12-7.2585c0.0744-0.04498 0.1493-0.08864 0.2247-0.13099z" fill="url(#paint1_linear_2994_8373)" style="fill:url(#paint1_linear_2994_8373);stroke-width:.76923"/><path id="path3-6" d="m32 19v4.4803c0 2.799-1.4629 5.3945-3.8574 6.8439l-12 7.2636c-2.4548 1.4859-5.5091 1.5395-8.0071 0.1609l11.722 7.0953c2.5466 1.5415 5.7386 1.5415 8.2853 0l12-7.2637c2.3945-1.4494 3.8573-4.0449 3.8573-6.8439v-3.2364l-1-1.5z" fill="url(#paint2_radial_2994_8373)" style="fill:url(#paint2_radial_2994_8373);stroke-width:.76923"/><path id="path4-2" d="m32 19v4.4803c0 2.799-1.4629 5.3945-3.8574 6.8439l-12 7.2636c-2.4548 1.4859-5.5091 1.5395-8.0071 0.1609l11.722 7.0953c2.5466 1.5415 5.7386 1.5415 8.2853 0l12-7.2637c2.3945-1.4494 3.8573-4.0449 3.8573-6.8439v-3.2364l-1-1.5z" fill="url(#paint3_linear_2994_8373)" style="fill:url(#paint3_linear_2994_8373);stroke-width:.76923"/><path id="path5-9" d="m40.14 10.415-12-7.2585c-2.4667-1.4921-5.5384-1.5383-8.0426-0.13867l-0.2384 0.1442c-2.3957 1.4491-3.8595 4.0453-3.8595 6.8452v9.4839l3.8595-2.3346c2.5456-1.5397 5.7354-1.5397 8.281 0l12 7.2585c2.3208 1.4039 3.7671 3.8841 3.8552 6.5832 0.0029-0.0872 0.0043-0.1745 0.0043-0.2621v-13.476c0-2.7999-1.4638-5.3961-3.8595-6.8452z" fill="url(#paint4_radial_2994_8373)" style="fill:url(#paint4_radial_2994_8373);stroke-width:.76923"/><path id="path6-1" d="m40.14 10.415-12-7.2585c-2.4667-1.4921-5.5384-1.5383-8.0426-0.13867l-0.2384 0.1442c-2.3957 1.4491-3.8595 4.0453-3.8595 6.8452v9.4839l3.8595-2.3346c2.5456-1.5397 5.7354-1.5397 8.281 0l12 7.2585c2.3208 1.4039 3.7671 3.8841 3.8552 6.5832 0.0029-0.0872 0.0043-0.1745 0.0043-0.2621v-13.476c0-2.7999-1.4638-5.3961-3.8595-6.8452z" fill="url(#paint5_linear_2994_8373)" style="fill:url(#linearGradient2);stroke-width:.76923"/><path id="path7-2" d="m4.0043 30.998" fill="url(#paint4_radial_2994_8373)" style="fill:url(#paint4_radial_2994_8373);stroke-width:.76923"/><path id="path8-7" d="m4.0043 30.998" fill="url(#paint7_linear_2994_8373)" style="fill:url(#linearGradient2);stroke-width:.76923"/></g></svg>
