<?xml version="1.0" encoding="UTF-8"?>
<svg width="16px" height="16px" viewBox="0 0 16 16" xmlns="http://www.w3.org/2000/svg">
 <g fill="#222">
  <path d="m3 1c-1.6445 0-3 1.3555-3 3v4c0 1.6445 1.3555 3 3 3h2v-2h-2c-0.57031 0-1-0.42969-1-1v-4c0-0.57031 0.42969-1 1-1h6c0.57031 0 1 0.42969 1 1v2h2v-2c0-1.6445-1.3555-3-3-3z"/>
  <path d="m7 5c-1.6445 0-3 1.3555-3 3v4c0 1.6445 1.3555 3 3 3h6c1.6445 0 3-1.3555 3-3v-4c0-1.6445-1.3555-3-3-3zm0 2h6c0.57031 0 1 0.42969 1 1v4c0 0.57031-0.42969 1-1 1h-6c-0.57031 0-1-0.42969-1-1v-4c0-0.57031 0.42969-1 1-1z"/>
 </g>
</svg>
