<?xml version="1.0" encoding="UTF-8"?>
<svg width="16px" height="16px" viewBox="0 0 16 16" xmlns="http://www.w3.org/2000/svg">
 <g fill="#222">
  <path d="m8 12c-0.70312 0-1.3555 0.37109-1.7148 0.97266h-3.2852c-0.55469 0-1 0.44531-1 1 0 0.55078 0.44531 1 1 1h3.2461c0.35156 0.63672 1.0234 1.0352 1.7539 1.0391 0.73047-0.003907 1.3984-0.40234 1.75-1.0391h3.2617c0.55078 0 1-0.44922 1-1 0-0.55469-0.44922-1-1-1h-3.293c-0.36328-0.60547-1.0156-0.97266-1.7188-0.97266zm0 1c0.55469 0 1.0039 0.44922 1.0039 1.0039 0 0.55859-0.44922 1.0078-1.0039 1.0078s-1.0078-0.44922-1.0078-1.0078c0-0.55469 0.45312-1.0039 1.0078-1.0039z"/>
  <path d="m7 10h2.0039v3h-2.0039z"/>
  <path d="m4.5078 0c-1.3711 0-2.5 1.1328-2.5 2.5v6c0 1.3672 1.1289 2.5 2.5 2.5h7c1.3672 0 2.5-1.1328 2.5-2.5v-6c0-1.3672-1.1328-2.5-2.5-2.5zm0 2h7c0.29297 0 0.5 0.20703 0.5 0.5v5c0 0.29297-0.20703 0.5-0.5 0.5h-7c-0.29687 0-0.5-0.20703-0.5-0.5v-5c0-0.29297 0.20313-0.5 0.5-0.5z"/>
 </g>
</svg>
