<?xml version="1.0" encoding="UTF-8"?>
<svg width="16px" height="16px" viewBox="0 0 16 16" xmlns="http://www.w3.org/2000/svg">
 <path d="m8 0c-4.4102 0-8 3.5898-8 8s3.5898 8 8 8 8-3.5898 8-8-3.5898-8-8-8zm0 2c3.332 0 6 2.668 6 6s-2.668 6-6 6-6-2.668-6-6 2.668-6 6-6zm0 1.875c-0.62109 0-1.125 0.50391-1.125 1.125s0.50391 1.125 1.125 1.125 1.125-0.50391 1.125-1.125-0.50391-1.125-1.125-1.125zm-1.5234 3.125c-0.26562 0.011719-0.47656 0.23047-0.47656 0.5 0 0.27734 0.22266 0.5 0.5 0.5h0.5v3h-0.5c-0.27734 0-0.5 0.22266-0.5 0.5s0.22266 0.5 0.5 0.5h3c0.27734 0 0.5-0.22266 0.5-0.5s-0.22266-0.5-0.5-0.5h-0.5v-4h-2.5-0.023438z" fill="#222"/>
</svg>
