<?xml version="1.0" encoding="UTF-8"?>
<svg width="16px" height="16px" viewBox="0 0 16 16" xmlns="http://www.w3.org/2000/svg">
 <g fill="#222">
  <path d="m3 5c-1.6562 0-3 1.3438-3 3s1.3438 3 3 3 3-1.3438 3-3-1.3438-3-3-3zm0 2c0.55078 0 1 0.44922 1 1s-0.44922 1-1 1-1-0.44922-1-1 0.44922-1 1-1z"/>
  <path d="m13 10c-1.6562 0-3 1.3438-3 3s1.3438 3 3 3 3-1.3438 3-3-1.3438-3-3-3zm0 2c0.55078 0 1 0.44922 1 1s-0.44922 1-1 1-1-0.44922-1-1 0.44922-1 1-1z"/>
  <path d="m13 0c-1.6562 0-3 1.3438-3 3s1.3438 3 3 3 3-1.3438 3-3-1.3438-3-3-3zm0 2c0.55078 0 1 0.44922 1 1s-0.44922 1-1 1-1-0.44922-1-1 0.44922-1 1-1z"/>
  <path d="m10.551 3.1055-5.9961 3 0.89062 1.7891 6.0039-3zm-5.1055 5-0.89062 1.7891 5.9961 3 0.89844-1.7891z"/>
 </g>
</svg>
