<?xml version="1.0" encoding="UTF-8"?>
<svg width="128px" height="128px" viewBox="0 0 128 128" xmlns="http://www.w3.org/2000/svg">
 <filter id="a" x="0%" y="0%" width="100%" height="100%">
  <feColorMatrix color-interpolation-filters="sRGB" values="0 0 0 0 1 0 0 0 0 1 0 0 0 0 1 0 0 0 1 0"/>
 </filter>
 <linearGradient id="b" x1="4.1572" x2="124" y1="113.61" y2="113.61" gradientUnits="userSpaceOnUse">
  <stop stop-color="#3d3846" offset="0"/>
  <stop stop-color="#766b87" offset=".43198"/>
  <stop stop-color="#3d3846" offset="1"/>
 </linearGradient>
 <linearGradient id="c" x1="-31.097" x2="-13.454" y1="213.99" y2="215.94" gradientTransform="matrix(.91327 -.40736 .40736 .91327 -8 -164)" gradientUnits="userSpaceOnUse">
  <stop stop-color="#e01b24" offset="0"/>
  <stop stop-color="#241f31" stop-opacity=".31373" offset="1"/>
 </linearGradient>
 <mask id="d">
  <g filter="url(#a)">
   <rect x="-12.8" y="-12.8" width="153.6" height="153.6" fill-opacity=".2929"/>
  </g>
 </mask>
 <clipPath id="e">
  <rect width="192" height="152"/>
 </clipPath>
 <path d="m124 66c0 33.137-26.863 60-60 60s-60-26.863-60-60 26.863-60 60-60 60 26.863 60 60z" fill="url(#b)"/>
 <path d="m64 7c30.93 0 56 25.07 56 56v2c0 30.93-25.07 56-56 56s-56-25.07-56-56v-2c0-30.93 25.07-56 56-56z" fill="#d5d3cf"/>
 <path d="m124 63c0 33.137-26.863 60-60 60s-60-26.863-60-60 26.863-60 60-60 60 26.863 60 60z" fill="#77767b"/>
 <path d="m118 63c0 29.824-24.176 54-54 54s-54-24.176-54-54 24.176-54 54-54 54 24.176 54 54z" fill="#deddda"/>
 <path d="m37.828 36.137c-0.17188 0.03125-0.33203 0.10938-0.46875 0.22266-0.19922 0.17578-0.32422 0.42188-0.34375 0.6875s0.066406 0.52734 0.24219 0.72656l21.711 25.125c-1.0781 1.6992-1.2383 3.8242-0.42188 5.6602 1.3516 3.0273 4.8984 4.3867 7.9258 3.0352 1.1953-0.53125 2.1875-1.4453 2.8164-2.5938l22.262 0.11719c1.1055 0.007812 2.0078-0.88281 2.0117-1.9922 0.007812-1.1055-0.88281-2.0078-1.9883-2.0156l-21.652-0.11328c-0.085937-0.45703-0.22656-0.89844-0.41406-1.3242-1.3477-3.0273-4.8984-4.3867-7.9258-3.0391-0.44531 0.20703-0.86719 0.46875-1.2539 0.77734l-21.555-24.945c-0.23438-0.26953-0.59375-0.39453-0.94531-0.32812z" fill-opacity=".19216" fill-rule="evenodd"/>
 <path d="m64.656 64.855 26.906 0.14453" fill="#3d3846" fill-rule="evenodd" stroke="#3d3846" stroke-linecap="round" stroke-width="4.0063"/>
 <path d="m37.238 33.883c7.2617-6.4609 16.617-10.078 26.336-10.191l0.45312 40.309z" fill="url(#c)"/>
 <path d="m63 63.914-24.984-28.91" fill="none" stroke="#fff" stroke-linecap="round" stroke-width="2.0031"/>
 <path d="m69.508 61.555c1.3516 3.0273-0.007812 6.5742-3.0352 7.9258-3.0273 1.3477-6.5742-0.011719-7.9219-3.0352-1.3516-3.0273 0.007813-6.5742 3.0352-7.9258 3.0234-1.3477 6.5742 0.011719 7.9219 3.0352z" fill="#241f31"/>
 <path d="m66.027 64c0 1.1055-0.89453 2-2 2-1.1016 0-2-0.89453-2-2s0.89844-2 2-2c1.1055 0 2 0.89453 2 2z" fill="#deddda"/>
 <g mask="url(#d)">
  <g transform="translate(-8 -16)" clip-path="url(#e)">
   <path d="m72 25c-29.824 0-54 24.176-54 54 0.007812 0.39062 0.023438 0.78125 0.042969 1.1719 0.45312-29.484 24.469-53.152 53.957-53.172 29.355 0.015625 53.32 23.48 53.957 52.828 0.015625-0.27734 0.03125-0.55078 0.042969-0.82812 0-29.824-24.176-54-54-54z"/>
  </g>
 </g>
</svg>
