<?xml version="1.0" encoding="UTF-8"?>
<svg width="16px" height="16px" viewBox="0 0 16 16" xmlns="http://www.w3.org/2000/svg">
 <g fill="#222">
  <path d="m5 0c-0.55078 0-1 0.44922-1 1v1h8v-1c0-0.55078-0.44922-1-1-1z"/>
  <path d="m3 3c-1.6602 0-3 1.3398-3 3v3c0 1.6602 1.3398 3 3 3v-2c-0.55469 0-1-0.44531-1-1v-3c0-0.55469 0.44531-1 1-1h10c0.55469 0 1 0.44531 1 1v3c0 0.55469-0.44531 1-1 1v2c1.6602 0 3-1.3398 3-3v-3c0-1.6602-1.3398-3-3-3z"/>
  <path d="m5 7c-1.1094 0-2 0.89062-2 2v4c0 0.97656 0.5 2 2 2h6c1.5 0 2-1.2695 2-2v-4c0-1.1094-0.89062-2-2-2zm0 2h6v4h-6z"/>
 </g>
</svg>
