<?xml version="1.0" encoding="UTF-8"?>
<svg width="16px" height="16px" viewBox="0 0 16 16" xmlns="http://www.w3.org/2000/svg">
 <path d="m2 0v16h2v-7h2c0.23438 0 0.44531 0.12891 0.55078 0.34375l0.10547 0.20703c0.44531 0.88672 1.3555 1.4492 2.3438 1.4492h2.5c1.3672 0 2.5-1.1328 2.5-2.5v-4c0-1.3672-1.1328-2.5-2.5-2.5h-2l-0.59766-0.80078c-0.56641-0.75391-1.457-1.1992-2.4023-1.1992zm2 2h2.5c0.31641 0 0.61328 0.14844 0.80078 0.40234l0.60156 0.79688c0.375 0.50391 0.96875 0.80078 1.5977 0.80078h2c0.28906 0 0.5 0.21094 0.5 0.5v4c0 0.28906-0.21094 0.5-0.5 0.5h-2.5c-0.23438 0-0.44531-0.12891-0.55078-0.34375l-0.10547-0.20703c-0.44531-0.88672-1.3555-1.4492-2.3438-1.4492h-2z" fill="#222"/>
</svg>
